<svg width="1439" height="560" viewBox="0 0 1439 560" fill="none" xmlns="http://www.w3.org/2000/svg">
<g clip-path="url(#clip0_188_4)">
<mask id="mask0_188_4" style="mask-type:luminance" maskUnits="userSpaceOnUse" x="-1" y="0" width="1440" height="560">
<path d="M1439 0H-1V560H1439V0Z" fill="white"/>
</mask>
<g mask="url(#mask0_188_4)">
<path d="M-716.091 369C-620.09 331.4 -428.09 162 -236.091 181C-44.0901 200 51.9099 444.6 243.909 464C435.91 483.4 531.91 287.2 723.909 278C915.91 268.8 1060.89 449 1203.91 418C1346.93 387 1391.98 182 1439 123" stroke="#FDD6C8" stroke-opacity="0.09" stroke-width="2"/>
<path d="M-747.833 298C-651.83 286 -459.83 203.2 -267.832 238C-75.8301 272.8 20.1699 502.2 212.167 472C404.17 441.8 500.17 87.6 692.167 87C884.17 86.4 1022.8 451.8 1172.17 469C1321.53 486.2 1385.63 232.2 1439 173" stroke="#FDD6C8" stroke-opacity="0.09" stroke-width="2"/>
<path d="M-149.25 497C-53.25 427.6 138.75 149.6 330.75 150C522.75 150.4 618.75 508.4 810.75 499C1002.75 489.6 1098.75 121.2 1290.75 103C1482.75 84.8 1741.1 388.2 1770.75 408C1800.4 427.8 1505.35 243.2 1439 202" stroke="#FDD6C8" stroke-opacity="0.09" stroke-width="2"/>
<path d="M-552.295 136C-456.29 202.8 -264.29 483.2 -72.2949 470C119.71 456.8 215.71 76.8 407.705 70C599.71 63.2 695.71 404.4 887.705 436C1079.71 467.6 1257.45 244.6 1367.71 228C1477.96 211.4 1424.74 328 1439 353" stroke="#FDD6C8" stroke-opacity="0.09" stroke-width="2"/>
<path d="M-309.161 291C-213.16 252.4 -21.1602 72.8 170.839 98C362.84 123.2 458.84 405.6 650.839 417C842.84 428.4 938.84 172.6 1130.84 155C1322.84 137.4 1549.21 347.4 1610.84 329C1672.47 310.6 1473.37 116.2 1439 63" stroke="#FDD6C8" stroke-opacity="0.09" stroke-width="2"/>
</g>
</g>
<defs>
<clipPath id="clip0_188_4">
<rect width="1440" height="560" fill="white" transform="translate(-1)"/>
</clipPath>
</defs>
</svg>
