<svg width="135" height="14" viewBox="0 0 135 14" fill="none" xmlns="http://www.w3.org/2000/svg">
<path d="M0.638 13V0.399999H6.11C6.95 0.399999 7.658 0.525999 8.234 0.778C8.822 1.018 9.266 1.372 9.566 1.84C9.866 2.308 10.016 2.866 10.016 3.514C10.016 4.234 9.836 4.834 9.476 5.314C9.116 5.794 8.6 6.124 7.928 6.304L7.91 5.944C8.462 6.076 8.948 6.292 9.368 6.592C9.788 6.892 10.112 7.264 10.34 7.708C10.568 8.152 10.682 8.656 10.682 9.22C10.682 9.844 10.58 10.396 10.376 10.876C10.172 11.344 9.872 11.734 9.476 12.046C9.08 12.358 8.612 12.598 8.072 12.766C7.544 12.922 6.95 13 6.29 13H0.638ZM3.23 10.66H6.182C6.566 10.66 6.89 10.606 7.154 10.498C7.43 10.378 7.64 10.198 7.784 9.958C7.928 9.718 8 9.436 8 9.112C8 8.8 7.922 8.536 7.766 8.32C7.61 8.104 7.388 7.942 7.1 7.834C6.824 7.714 6.488 7.654 6.092 7.654H3.23V10.66ZM3.23 5.512H5.786C6.11 5.512 6.392 5.452 6.632 5.332C6.872 5.212 7.052 5.05 7.172 4.846C7.304 4.642 7.37 4.402 7.37 4.126C7.37 3.682 7.226 3.34 6.938 3.1C6.65 2.86 6.218 2.74 5.642 2.74H3.23V5.512ZM13.136 13V0.399999H18.716C19.496 0.399999 20.204 0.579999 20.84 0.94C21.476 1.288 21.974 1.762 22.334 2.362C22.706 2.962 22.892 3.646 22.892 4.414C22.892 5.17 22.706 5.86 22.334 6.484C21.974 7.096 21.476 7.582 20.84 7.942C20.204 8.302 19.496 8.482 18.716 8.482H15.746V13H13.136ZM20.282 13L17.078 7.312L19.85 6.862L23.414 13.018L20.282 13ZM15.746 6.286H18.59C18.914 6.286 19.196 6.214 19.436 6.07C19.688 5.914 19.88 5.704 20.012 5.44C20.144 5.164 20.21 4.858 20.21 4.522C20.21 4.162 20.132 3.85 19.976 3.586C19.82 3.322 19.592 3.118 19.292 2.974C18.992 2.818 18.644 2.74 18.248 2.74H15.746V6.286ZM30.8357 13.108C29.8157 13.108 28.9037 12.898 28.0997 12.478C27.3077 12.046 26.6837 11.458 26.2277 10.714C25.7717 9.958 25.5437 9.106 25.5437 8.158V0.381999H28.2617V7.996C28.2617 8.5 28.3757 8.956 28.6037 9.364C28.8317 9.76 29.1377 10.078 29.5217 10.318C29.9177 10.558 30.3557 10.678 30.8357 10.678C31.3277 10.678 31.7717 10.558 32.1677 10.318C32.5757 10.078 32.8937 9.76 33.1217 9.364C33.3617 8.956 33.4817 8.5 33.4817 7.996V0.381999H36.1097V8.158C36.1097 9.106 35.8817 9.958 35.4257 10.714C34.9697 11.458 34.3397 12.046 33.5357 12.478C32.7437 12.898 31.8437 13.108 30.8357 13.108ZM39.2747 13V0.399999H41.6867L48.6527 9.814H48.1487C48.1007 9.442 48.0587 9.082 48.0227 8.734C47.9867 8.374 47.9507 8.014 47.9147 7.654C47.8907 7.282 47.8667 6.904 47.8427 6.52C47.8307 6.124 47.8187 5.71 47.8067 5.278C47.7947 4.834 47.7887 4.354 47.7887 3.838V0.399999H50.4347V13H47.9867L40.8767 3.496L41.5607 3.514C41.6207 4.138 41.6687 4.672 41.7047 5.116C41.7527 5.548 41.7887 5.926 41.8127 6.25C41.8367 6.574 41.8547 6.856 41.8667 7.096C41.8907 7.336 41.9027 7.564 41.9027 7.78C41.9147 7.996 41.9207 8.224 41.9207 8.464V13H39.2747ZM52.2124 13L57.1444 0.399999H59.5564L64.4704 13H61.6984L59.1604 6.214C59.0884 6.022 58.9984 5.776 58.8904 5.476C58.7944 5.176 58.6924 4.858 58.5844 4.522C58.4764 4.186 58.3744 3.868 58.2784 3.568C58.1824 3.256 58.1104 2.998 58.0624 2.794L58.5484 2.776C58.4764 3.052 58.3924 3.34 58.2964 3.64C58.2124 3.928 58.1224 4.228 58.0264 4.54C57.9304 4.84 57.8284 5.134 57.7204 5.422C57.6124 5.71 57.5104 5.992 57.4144 6.268L54.8764 13H52.2124ZM54.4984 10.354L55.3804 8.176H61.1584L62.0584 10.354H54.4984ZM71.7591 13V0.399999H74.1711L81.1371 9.814H80.6331C80.5851 9.442 80.5431 9.082 80.5071 8.734C80.4711 8.374 80.4351 8.014 80.3991 7.654C80.3751 7.282 80.3511 6.904 80.3271 6.52C80.3151 6.124 80.3031 5.71 80.2911 5.278C80.2791 4.834 80.2731 4.354 80.2731 3.838V0.399999H82.9191V13H80.4711L73.3611 3.496L74.0451 3.514C74.1051 4.138 74.1531 4.672 74.1891 5.116C74.2371 5.548 74.2731 5.926 74.2971 6.25C74.3211 6.574 74.3391 6.856 74.3511 7.096C74.3751 7.336 74.3871 7.564 74.3871 7.78C74.3991 7.996 74.4051 8.224 74.4051 8.464V13H71.7591ZM91.3747 13.108C90.3547 13.108 89.4427 12.898 88.6387 12.478C87.8467 12.046 87.2227 11.458 86.7667 10.714C86.3107 9.958 86.0827 9.106 86.0827 8.158V0.381999H88.8007V7.996C88.8007 8.5 88.9147 8.956 89.1427 9.364C89.3707 9.76 89.6767 10.078 90.0607 10.318C90.4567 10.558 90.8947 10.678 91.3747 10.678C91.8667 10.678 92.3107 10.558 92.7067 10.318C93.1147 10.078 93.4327 9.76 93.6607 9.364C93.9007 8.956 94.0207 8.5 94.0207 7.996V0.381999H96.6487V8.158C96.6487 9.106 96.4207 9.958 95.9647 10.714C95.5087 11.458 94.8787 12.046 94.0747 12.478C93.2827 12.898 92.3827 13.108 91.3747 13.108ZM99.8138 13V0.399999H102.226L109.192 9.814H108.688C108.64 9.442 108.598 9.082 108.562 8.734C108.526 8.374 108.49 8.014 108.454 7.654C108.43 7.282 108.406 6.904 108.382 6.52C108.37 6.124 108.358 5.71 108.346 5.278C108.334 4.834 108.328 4.354 108.328 3.838V0.399999H110.974V13H108.526L101.416 3.496L102.1 3.514C102.16 4.138 102.208 4.672 102.244 5.116C102.292 5.548 102.328 5.926 102.352 6.25C102.376 6.574 102.394 6.856 102.406 7.096C102.43 7.336 102.442 7.564 102.442 7.78C102.454 7.996 102.46 8.224 102.46 8.464V13H99.8138ZM114.245 13V0.399999H122.759V2.776H116.873V10.624H122.885V13H114.245ZM115.505 7.726V5.422H121.895V7.726H115.505ZM129.757 13.18C128.977 13.18 128.263 13.084 127.615 12.892C126.979 12.7 126.409 12.418 125.905 12.046C125.413 11.674 124.969 11.224 124.573 10.696L126.265 8.77C126.853 9.586 127.435 10.144 128.011 10.444C128.599 10.732 129.235 10.876 129.919 10.876C130.291 10.876 130.621 10.828 130.909 10.732C131.209 10.624 131.443 10.474 131.611 10.282C131.779 10.09 131.863 9.862 131.863 9.598C131.863 9.406 131.821 9.232 131.737 9.076C131.653 8.908 131.533 8.764 131.377 8.644C131.221 8.512 131.035 8.398 130.819 8.302C130.603 8.194 130.363 8.104 130.099 8.032C129.835 7.948 129.547 7.882 129.235 7.834C128.563 7.678 127.975 7.492 127.471 7.276C126.967 7.048 126.547 6.772 126.211 6.448C125.875 6.112 125.623 5.734 125.455 5.314C125.299 4.894 125.221 4.42 125.221 3.892C125.221 3.352 125.341 2.854 125.581 2.398C125.821 1.93 126.151 1.528 126.571 1.192C127.003 0.856 127.495 0.597999 128.047 0.417999C128.611 0.237999 129.205 0.147999 129.829 0.147999C130.597 0.147999 131.269 0.237999 131.845 0.417999C132.421 0.585999 132.919 0.831999 133.339 1.156C133.771 1.48 134.131 1.876 134.419 2.344L132.709 4C132.457 3.664 132.181 3.382 131.881 3.154C131.593 2.926 131.275 2.758 130.927 2.65C130.591 2.53 130.243 2.47 129.883 2.47C129.487 2.47 129.145 2.524 128.857 2.632C128.569 2.728 128.341 2.872 128.173 3.064C128.017 3.256 127.939 3.49 127.939 3.766C127.939 3.982 127.993 4.174 128.101 4.342C128.209 4.51 128.365 4.66 128.569 4.792C128.773 4.912 129.019 5.02 129.307 5.116C129.595 5.212 129.913 5.296 130.261 5.368C130.921 5.5 131.515 5.674 132.043 5.89C132.571 6.106 133.021 6.37 133.393 6.682C133.777 6.982 134.071 7.342 134.275 7.762C134.479 8.17 134.581 8.632 134.581 9.148C134.581 10 134.377 10.726 133.969 11.326C133.561 11.926 132.997 12.388 132.277 12.712C131.557 13.024 130.717 13.18 129.757 13.18Z" fill="#FBBAA4"/>
</svg>
