<svg width="800" height="800" viewBox="0 0 800 800" fill="none" xmlns="http://www.w3.org/2000/svg">
<path d="M650 400C650 427.6 627.6 450 600 450H200C172.4 450 150 427.6 150 400C150 372.4 172.4 350 200 350H600C627.6 350 650 372.4 650 400Z" fill="#FBBAA4"/>
<path d="M650 200C650 227.6 627.6 250 600 250H200C172.4 250 150 227.6 150 200C150 172.4 172.4 150 200 150H600C627.6 150 650 172.4 650 200Z" fill="#FBBAA4"/>
<path d="M650 600C650 627.6 627.6 650 600 650H200C172.4 650 150 627.6 150 600C150 572.4 172.4 550 200 550H600C627.6 550 650 572.4 650 600Z" fill="#FBBAA4"/>
</svg>
