<svg width="38" height="32" viewBox="0 0 38 32" fill="none" xmlns="http://www.w3.org/2000/svg">
<path d="M37.3332 2V10L18.9998 18L0.666504 10V2C0.666504 1.46957 0.859658 0.96086 1.20347 0.585787C1.54729 0.210714 2.01361 0 2.49984 0H35.4998C35.9861 0 36.4524 0.210714 36.7962 0.585787C37.14 0.96086 37.3332 1.46957 37.3332 2ZM0.666504 14.308V30C0.666504 30.5304 0.859658 31.0391 1.20347 31.4142C1.54729 31.7893 2.01361 32 2.49984 32H35.4998C35.9861 32 36.4524 31.7893 36.7962 31.4142C37.14 31.0391 37.3332 30.5304 37.3332 30V14.308L18.9998 22.308L0.666504 14.308Z" fill="#2C171C"/>
</svg>
