<svg width="32" height="32" viewBox="0 0 32 32" fill="none" xmlns="http://www.w3.org/2000/svg">
<path d="M29.44 -5.95984e-05H2.74C2.39586 -0.0161796 2.0519 0.0357209 1.72784 0.152701C1.40378 0.269681 1.10598 0.44942 0.85146 0.68162C0.59696 0.91384 0.39074 1.19398 0.24464 1.50598C0.0985404 1.818 0.0154 2.15576 0 2.49994V29.26C0.02016 29.9802 0.31532 30.6656 0.82486 31.175C1.3344 31.6846 2.01968 31.9798 2.74 32H29.44C30.1402 31.9688 30.8004 31.6644 31.279 31.1522C31.7576 30.64 32.0164 29.9608 32 29.26V2.49994C32.0058 2.16494 31.943 1.83232 31.8156 1.52244C31.6882 1.21258 31.4988 0.932 31.259 0.6979C31.0194 0.46382 30.7344 0.281181 30.4216 0.161161C30.1088 0.0411409 29.7748 -0.0137196 29.44 -5.95984e-05ZM10 26.68H5.34V12.42H10V26.68ZM7.78 10.2599C7.45482 10.2713 7.1308 10.2152 6.82832 10.0954C6.52582 9.97548 6.25138 9.79434 6.02226 9.56332C5.79312 9.3323 5.61422 9.0564 5.49682 8.75294C5.3794 8.44948 5.32602 8.12502 5.34 7.79994C5.32562 7.47134 5.38008 7.14338 5.4999 6.83708C5.61972 6.53076 5.80224 6.25288 6.03574 6.02126C6.26926 5.78962 6.5486 5.60936 6.85586 5.49204C7.16314 5.3747 7.49154 5.3229 7.82 5.33994C8.14518 5.32862 8.4692 5.38464 8.77168 5.50452C9.07418 5.6244 9.34862 5.80554 9.57774 6.03656C9.80688 6.26758 9.98578 6.54348 10.1032 6.84694C10.2206 7.1504 10.274 7.47486 10.26 7.79994C10.2744 8.12854 10.2199 8.4565 10.1001 8.7628C9.98028 9.06912 9.79776 9.347 9.56426 9.57862C9.33074 9.81026 9.0514 9.99052 8.74414 10.1078C8.43686 10.2252 8.10846 10.277 7.78 10.2599ZM26.68 26.68H22V18.88C22 17.02 21.34 15.74 19.68 15.74C19.1644 15.7444 18.6626 15.9082 18.2438 16.209C17.8248 16.5098 17.5092 16.9328 17.34 17.42C17.21 17.7852 17.1556 18.173 17.18 18.56V26.68H12.58V12.42H17.18V14.42C17.589 13.6686 18.1976 13.045 18.9388 12.6178C19.68 12.1908 20.5248 11.977 21.38 11.9999C24.4 11.9999 26.68 14 26.68 18.26V26.68Z" fill="#2C171C"/>
</svg>
