<svg width="38" height="38" viewBox="0 0 38 38" fill="none" xmlns="http://www.w3.org/2000/svg">
<g clip-path="url(#clip0_124_154)">
<path fill-rule="evenodd" clip-rule="evenodd" d="M19 0C29.4937 0 38 8.72087 38 19.4806C38 28.0857 32.5622 35.3855 25.0173 37.9638C24.054 38.1557 23.712 37.5474 23.712 37.0287C23.712 36.3865 23.7348 34.2889 23.7348 31.6821C23.7348 29.8657 23.1268 28.6802 22.4447 28.076C26.676 27.5934 31.122 25.946 31.122 18.4638C31.122 16.3358 30.3848 14.5993 29.165 13.2351C29.3626 12.743 30.0143 10.7615 28.9788 8.07871C28.9788 8.07871 27.3866 7.55672 23.7595 10.0761C22.2414 9.64482 20.615 9.42782 19 9.42022C17.385 9.42782 15.7605 9.64482 14.2443 10.0761C10.6134 7.55672 9.0174 8.07871 9.0174 8.07871C7.9857 10.7615 8.6374 12.743 8.8331 13.2351C7.619 14.5993 6.87611 16.3358 6.87611 18.4638C6.87611 25.927 11.3126 27.5997 15.5325 28.0918C14.9891 28.5782 14.497 29.4362 14.326 30.6959C13.243 31.1937 10.4918 32.0553 8.79699 29.078C8.79699 29.078 7.7919 27.2062 5.8843 27.0694C5.8843 27.0694 4.0318 27.0448 5.7551 28.2532C5.7551 28.2532 6.9996 28.8517 7.8641 31.1032C7.8641 31.1032 8.97941 34.5802 14.2652 33.4021C14.2747 35.0304 14.2918 36.5651 14.2918 37.0287C14.2918 37.5436 13.9422 38.1462 12.9941 37.9657C5.44349 35.3912 0 28.0876 0 19.4806C0 8.72087 8.5082 0 19 0Z" fill="#2C171C"/>
</g>
<defs>
<clipPath id="clip0_124_154">
<rect width="38" height="38" fill="white"/>
</clipPath>
</defs>
</svg>
