<svg width="38" height="32" viewBox="0 0 38 32" fill="none" xmlns="http://www.w3.org/2000/svg">
<path d="M37.3337 2V10L19.0003 18L0.666992 10V2C0.666992 1.46957 0.860146 0.96086 1.20396 0.585787C1.54778 0.210714 2.0141 0 2.50033 0H35.5003C35.9866 0 36.4529 0.210714 36.7967 0.585787C37.1405 0.96086 37.3337 1.46957 37.3337 2ZM0.666992 14.308V30C0.666992 30.5304 0.860146 31.0391 1.20396 31.4142C1.54778 31.7893 2.0141 32 2.50033 32H35.5003C35.9866 32 36.4529 31.7893 36.7967 31.4142C37.1405 31.0391 37.3337 30.5304 37.3337 30V14.308L19.0003 22.308L0.666992 14.308Z" fill="#FBBAA4"/>
</svg>
