<svg width="26" height="26" viewBox="0 0 26 26" fill="none" xmlns="http://www.w3.org/2000/svg">
<path fill-rule="evenodd" clip-rule="evenodd" d="M17.4865 1.33334H8.51312C6.59824 1.34393 4.766 2.11476 3.41949 3.47628C2.07297 4.83781 1.32247 6.67848 1.33312 8.59334V17.4067C1.32247 19.3215 2.07297 21.1622 3.41949 22.5237C4.766 23.8852 6.59824 24.6562 8.51312 24.6667H17.4865C19.4013 24.6562 21.2335 23.8852 22.58 22.5237C23.9267 21.1622 24.677 19.3215 24.6665 17.4067V8.59334C24.677 6.67848 23.9267 4.83781 22.58 3.47628C21.2335 2.11476 19.4013 1.34393 17.4865 1.33334Z" stroke="#FBBAA4" stroke-width="2" stroke-linecap="round" stroke-linejoin="round"/>
<path d="M6.33301 8.00001C5.64266 8.00001 5.08301 8.55966 5.08301 9.25001C5.08301 9.94034 5.64266 10.5 6.33301 10.5V8.00001ZM12.9996 10.5C13.69 10.5 14.2496 9.94034 14.2496 9.25001C14.2496 8.55966 13.69 8.00001 12.9996 8.00001V10.5ZM11.7496 9.25001C11.7496 9.94034 12.3093 10.5 12.9996 10.5C13.69 10.5 14.2496 9.94034 14.2496 9.25001H11.7496ZM14.2496 6.33334C14.2496 5.64299 13.69 5.08334 12.9996 5.08334C12.3093 5.08334 11.7496 5.64299 11.7496 6.33334H14.2496ZM12.9996 8.00001C12.3093 8.00001 11.7496 8.55966 11.7496 9.25001C11.7496 9.94034 12.3093 10.5 12.9996 10.5V8.00001ZM18.833 10.5C19.5233 10.5 20.083 9.94034 20.083 9.25001C20.083 8.55966 19.5233 8.00001 18.833 8.00001V10.5ZM18.833 8.00001C18.1426 8.00001 17.583 8.55966 17.583 9.25001C17.583 9.94034 18.1426 10.5 18.833 10.5V8.00001ZM19.6663 10.5C20.3566 10.5 20.9163 9.94034 20.9163 9.25001C20.9163 8.55966 20.3566 8.00001 19.6663 8.00001V10.5ZM19.8558 9.96851C20.2526 9.40371 20.1165 8.62406 19.5516 8.22719C18.9866 7.83034 18.2071 7.96654 17.8101 8.53143L19.8558 9.96851ZM11.789 15.1305C11.2626 15.5773 11.1983 16.3662 11.6451 16.8923C12.092 17.4187 12.8808 17.483 13.407 17.0362L11.789 15.1305ZM8.49902 17.8338C7.94701 18.2483 7.83559 19.032 8.25016 19.584C8.66474 20.136 9.44831 20.2475 10.0003 19.8328L8.49902 17.8338ZM13.4276 17.0117C13.944 16.5535 13.9911 15.7635 13.533 15.2472C13.075 14.7307 12.2848 14.6835 11.7685 15.1417L13.4276 17.0117ZM11.6146 16.8485C12.041 17.3915 12.8266 17.4862 13.3698 17.06C13.9128 16.6337 14.0075 15.848 13.5813 15.3048L11.6146 16.8485ZM11.6428 12.0778C11.3636 11.4463 10.6255 11.161 9.99414 11.4402C9.36274 11.7193 9.07726 12.4575 9.35647 13.0888L11.6428 12.0778ZM13.601 15.3373C13.189 14.7833 12.406 14.6683 11.852 15.0803C11.2981 15.4923 11.183 16.2753 11.595 16.8293L13.601 15.3373ZM16.1583 20.768C16.7665 21.0945 17.5243 20.8663 17.851 20.258C18.1775 19.6498 17.9493 18.892 17.3411 18.5653L16.1583 20.768ZM6.33301 10.5H12.9996V8.00001H6.33301V10.5ZM14.2496 9.25001V6.33334H11.7496V9.25001H14.2496ZM12.9996 10.5H18.833V8.00001H12.9996V10.5ZM18.833 10.5H19.6663V8.00001H18.833V10.5ZM17.8101 8.53143C16.0915 10.9778 14.0681 13.1953 11.789 15.1305L13.407 17.0362C15.848 14.9637 18.015 12.5887 19.8558 9.96851L17.8101 8.53143ZM10.0003 19.8328C10.8516 19.1935 12.088 18.2002 13.4276 17.0117L11.7685 15.1417C10.478 16.2865 9.29434 17.2365 8.49902 17.8338L10.0003 19.8328ZM13.5813 15.3048C12.8035 14.314 12.1523 13.2298 11.6428 12.0778L9.35647 13.0888C9.94998 14.431 10.7086 15.694 11.6146 16.8485L13.5813 15.3048ZM11.595 16.8293C12.8086 18.4612 14.3666 19.8058 16.1583 20.768L17.3411 18.5653C15.8726 17.7768 14.5958 16.6747 13.601 15.3373L11.595 16.8293Z" fill="#FBBAA4"/>
</svg>
