<svg width="26" height="26" viewBox="0 0 26 26" fill="none" xmlns="http://www.w3.org/2000/svg">
<path fill-rule="evenodd" clip-rule="evenodd" d="M17.487 1.33334H8.51361C6.59873 1.34393 4.76649 2.11476 3.41997 3.47628C2.07346 4.83781 1.32296 6.67848 1.33361 8.59334V17.4067C1.32296 19.3215 2.07346 21.1622 3.41997 22.5237C4.76649 23.8852 6.59873 24.6562 8.51361 24.6667H17.487C19.4018 24.6562 21.234 23.8852 22.5805 22.5237C23.9272 21.1622 24.6775 19.3215 24.667 17.4067V8.59334C24.6775 6.67848 23.9272 4.83781 22.5805 3.47628C21.234 2.11476 19.4018 1.34393 17.487 1.33334Z" stroke="#2C171C" stroke-width="2" stroke-linecap="round" stroke-linejoin="round"/>
<path d="M6.3335 8.00001C5.64315 8.00001 5.0835 8.55966 5.0835 9.25001C5.0835 9.94034 5.64315 10.5 6.3335 10.5V8.00001ZM13.0001 10.5C13.6905 10.5 14.2501 9.94034 14.2501 9.25001C14.2501 8.55966 13.6905 8.00001 13.0001 8.00001V10.5ZM11.7501 9.25001C11.7501 9.94034 12.3098 10.5 13.0001 10.5C13.6905 10.5 14.2501 9.94034 14.2501 9.25001H11.7501ZM14.2501 6.33334C14.2501 5.64299 13.6905 5.08334 13.0001 5.08334C12.3098 5.08334 11.7501 5.64299 11.7501 6.33334H14.2501ZM13.0001 8.00001C12.3098 8.00001 11.7501 8.55966 11.7501 9.25001C11.7501 9.94034 12.3098 10.5 13.0001 10.5V8.00001ZM18.8335 10.5C19.5238 10.5 20.0835 9.94034 20.0835 9.25001C20.0835 8.55966 19.5238 8.00001 18.8335 8.00001V10.5ZM18.8335 8.00001C18.1431 8.00001 17.5835 8.55966 17.5835 9.25001C17.5835 9.94034 18.1431 10.5 18.8335 10.5V8.00001ZM19.6668 10.5C20.3571 10.5 20.9168 9.94034 20.9168 9.25001C20.9168 8.55966 20.3571 8.00001 19.6668 8.00001V10.5ZM19.8563 9.96851C20.2531 9.40371 20.117 8.62406 19.5521 8.22719C18.9871 7.83034 18.2076 7.96654 17.8106 8.53143L19.8563 9.96851ZM11.7895 15.1305C11.2631 15.5773 11.1988 16.3662 11.6456 16.8923C12.0925 17.4187 12.8813 17.483 13.4075 17.0362L11.7895 15.1305ZM8.49951 17.8338C7.9475 18.2483 7.83608 19.032 8.25065 19.584C8.66523 20.136 9.4488 20.2475 10.0008 19.8328L8.49951 17.8338ZM13.4281 17.0117C13.9445 16.5535 13.9916 15.7635 13.5335 15.2472C13.0755 14.7307 12.2853 14.6835 11.769 15.1417L13.4281 17.0117ZM11.6151 16.8485C12.0415 17.3915 12.8271 17.4862 13.3703 17.06C13.9133 16.6337 14.008 15.848 13.5818 15.3048L11.6151 16.8485ZM11.6433 12.0778C11.3641 11.4463 10.626 11.161 9.99463 11.4402C9.36323 11.7193 9.07775 12.4575 9.35696 13.0888L11.6433 12.0778ZM13.6015 15.3373C13.1895 14.7833 12.4065 14.6683 11.8525 15.0803C11.2986 15.4923 11.1835 16.2753 11.5955 16.8293L13.6015 15.3373ZM16.1588 20.768C16.767 21.0945 17.5248 20.8663 17.8515 20.258C18.178 19.6498 17.9498 18.892 17.3416 18.5653L16.1588 20.768ZM6.3335 10.5H13.0001V8.00001H6.3335V10.5ZM14.2501 9.25001V6.33334H11.7501V9.25001H14.2501ZM13.0001 10.5H18.8335V8.00001H13.0001V10.5ZM18.8335 10.5H19.6668V8.00001H18.8335V10.5ZM17.8106 8.53143C16.092 10.9778 14.0686 13.1953 11.7895 15.1305L13.4075 17.0362C15.8485 14.9637 18.0155 12.5887 19.8563 9.96851L17.8106 8.53143ZM10.0008 19.8328C10.8521 19.1935 12.0885 18.2002 13.4281 17.0117L11.769 15.1417C10.4785 16.2865 9.29483 17.2365 8.49951 17.8338L10.0008 19.8328ZM13.5818 15.3048C12.804 14.314 12.1528 13.2298 11.6433 12.0778L9.35696 13.0888C9.95046 14.431 10.7091 15.694 11.6151 16.8485L13.5818 15.3048ZM11.5955 16.8293C12.8091 18.4612 14.3671 19.8058 16.1588 20.768L17.3416 18.5653C15.8731 17.7768 14.5963 16.6747 13.6015 15.3373L11.5955 16.8293Z" fill="#2C171C"/>
</svg>
